#!OML:ASF H:\ManfredETheater\Project 1\Capture day 1\Session 1\subject.ASF
:FULLY-SPECIFIED
:DEGREES
95
root 1.35717 16.6863 0.448768 -155.178 -2.43666 172.589
lowerback 12.1144 -2.01154 -5.78906
upperback -2.29336 -3.51975 0.814184
thorax -8.88358 -1.37601 4.8215
lowerneck -26.2146 -1.56651 -2.41126
upperneck 8.07477 -1.40828 2.96085
head 6.64783 -0.343537 1.19857
rclavicle -1.76918e-014 -2.34566e-014
rhumerus -84.0277 3.27615 -81.9447
rradius 93.0952
rwrist -12.1153
rhand -28.3954 12.7121
rfingers 7.12502
rthumb -1.76776 -17.2604
lclavicle -1.76918e-014 -2.34566e-014
lhumerus -26.1267 -21.8083 92.9721
lradius 139.149
lwrist 15.7763
lhand -18.3936 -10.0464
lfingers 7.12502
lthumb 7.89044 19.7863
rfemur -70.5872 -5.01697 17.302
rtibia 63.7372
rfoot -14.2658 -4.49157
rtoes -27.9193
lfemur 0.528342 -10.3288 -28.6876
ltibia 30.9069
lfoot 27.193 -10.1361
ltoes 1.76927
96
root 1.3456 16.7313 -0.199925 -155.483 -1.73365 172.473
lowerback 12.0459 -1.96931 -5.94923
upperback -2.33845 -3.49203 0.752445
thorax -8.89238 -1.35527 4.83801
lowerneck -26.4787 -1.41644 -2.31933
upperneck 8.61105 -1.23539 2.72059
head 6.85756 -0.28942 1.12662
rclavicle 1.66979e-014 5.96354e-015
rhumerus -83.9676 2.87386 -81.5858
rradius 93.6021
rwrist -12.2259
rhand -28.2618 12.7674
rfingers 7.12502
rthumb -1.63881 -17.2061
lclavicle 1.66979e-014 5.96354e-015
lhumerus -26.8901 -21.2863 92.4995
lradius 138.381
lwrist 14.7188
lhand -18.5331 -9.98964
lfingers 7.12502
lthumb 7.75585 19.8481
rfemur -70.1829 -4.58191 17.1905
rtibia 59.2355
rfoot -14.3715 -4.08747
rtoes -28.5661
lfemur 2.27866 -11.4658 -29.5522
ltibia 30.5127
lfoot 31.3268 -10.4626
ltoes 7.90786
97
root 1.3346 16.7656 -0.840966 -155.768 -1.12734 172.241
lowerback 12.0257 -1.94269 -6.17297
upperback -2.36788 -3.50033 0.670481
thorax -8.90569 -1.34963 4.87738
lowerneck -26.7318 -1.29159 -2.22254
upperneck 9.05674 -1.08309 2.45095
head 7.03728 -0.246452 1.04154
rclavicle -8.24956e-014 -7.15625e-015
rhumerus -83.6301 2.41393 -81.2671
rradius 94.0587
rwrist -12.3302
rhand -28.1058 12.812
rfingers 7.12502
rthumb -1.48812 -17.1626
lclavicle -8.24956e-014 -7.15625e-015
lhumerus -27.6823 -20.6822 92.1159
lradius 137.277
lwrist 13.7764
lhand -18.6766 -9.84915
lfingers 7.12502
lthumb 7.61733 19.9937
rfemur -69.6943 -4.36483 17.1362
rtibia 55.0401
rfoot -14.3799 -3.6695
rtoes -29.1911
lfemur 3.50472 -12.2255 -30.4744
ltibia 31.1736
lfoot 33.4355 -11.0972
ltoes 13.2307
98
root 1.32387 16.7879 -1.47371 -156.045 -0.619366 171.916
lowerback 12.0552 -1.92523 -6.43929
upperback -2.37435 -3.5322 0.576044
thorax -8.91835 -1.35434 4.93362
lowerneck -26.9437 -1.19766 -2.14107
upperneck 9.37725 -0.954479 2.16804
head 7.17073 -0.215125 0.951186
rclavicle 9.54166e-015 1.19271e-014
rhumerus -83.0211 1.88051 -80.9848
rradius 94.4529
rwrist -12.3449
rhand -27.9139 12.849
rfingers 7.12502
rthumb -1.30279 -17.1268
lclavicle 9.54166e-015 1.19271e-014
lhumerus -28.4912 -20.0258 91.8574
lradius 135.867
lwrist 13.0713
lhand -18.7449 -9.64106
lfingers 7.12502
lthumb 7.55143 20.2041
rfemur -69.1544 -4.35065 17.1655
rtibia 51.2975
rfoot -14.2947 -3.2653
rtoes -29.7628
lfemur 4.19969 -12.5007 -31.3535
ltibia 32.8894
lfoot 33.8899 -11.7967
ltoes 17.0458
99
root 1.31397 16.7973 -2.09849 -156.331 -0.213619 171.543
lowerback 12.1329 -1.91106 -6.71955
upperback -2.3534 -3.57397 0.482527
thorax -8.92667 -1.36408 5.00228
lowerneck -27.0965 -1.13725 -2.09005
upperneck 9.56891 -0.851544 1.88433
head 7.25359 -0.195799 0.861713
rclavicle -3.99557e-014 7.95139e-015
rhumerus -82.1577 1.26413 -80.738
rradius 94.7761
rwrist -12.2061
rhand -27.6805 12.8781
rfingers 7.12502
rthumb -1.0773 -17.0989
lclavicle -3.99557e-014 7.95139e-015
lhumerus -29.3168 -19.3316 91.752
lradius 134.185
lwrist 12.709
lhand -18.6855 -9.39351
lfingers 7.12502
lthumb 7.60872 20.4496
rfemur -68.5907 -4.50233 17.3046
rtibia 48.1592
rfoot -14.1386 -2.89993
rtoes -30.2166
lfemur 4.40243 -12.3499 -32.1041
ltibia 35.5482
lfoot 33.2995 -12.128
ltoes 19.1877
100
root 1.30525 16.7948 -2.71684 -156.64 0.0918584 171.176
lowerback 12.2483 -1.89433 -6.97218
upperback -2.30155 -3.60908 0.402105
thorax -8.92422 -1.37295 5.06937
lowerneck -27.1693 -1.11231 -2.09684
upperneck 9.63314 -0.775595 1.6366
head 7.28308 -0.186424 0.789657
rclavicle 1.09332e-014 -1.47101e-014
rhumerus -81.0605 0.566398 -80.5365
rradius 95.0092
rwrist -11.8982
rhand -27.4043 12.8995
rfingers 7.12502
rthumb -0.810557 -17.0787
lclavicle 1.09332e-014 -1.47101e-014
lhumerus -30.16 -18.6079 91.8109
lradius 132.256
lwrist 12.6882
lhand -18.513 -9.12059
lfingers 7.12502
lthumb 7.77523 20.7165
rfemur -68.024 -4.76705 17.5642
rtibia 45.7681
rfoot -13.9524 -2.58145
rtoes -30.5597
lfemur 4.19512 -11.8976 -32.6705
ltibia 38.9659
lfoot 32.1823 -11.9036
ltoes 19.8628
101
root 1.29835 16.7834 -3.33072 -156.987 0.30129 170.875
lowerback 12.4054 -1.8707 -7.15298
upperback -2.22023 -3.62339 0.347674
thorax -8.91813 -1.37547 5.12168
lowerneck -27.1388 -1.11824 -2.15232
upperneck 9.57057 -0.726039 1.42357
head 7.2555 -0.186446 0.73332
rclavicle 1.59028e-014 2.66371e-014
rhumerus -79.7517 -0.194132 -80.3957
rradius 95.1344
rwrist -11.4471
rhand -27.0877 12.9045
rfingers 7.12502
rthumb -0.504769 -17.0746
lclavicle 1.59028e-014 2.66371e-014
lhumerus -31.0162 -17.8439 92.0149
lradius 130.098
lwrist 12.9565
lhand -18.2601 -8.83396
lfingers 7.12502
lthumb 8.01927 20.9939
rfemur -67.4596 -5.0904 17.9551
rtibia 44.2387
rfoot -13.6708 -2.26315
rtoes -30.8208
lfemur 3.64989 -11.2441 -32.9988
ltibia 42.9524
lfoot 30.8865 -11.2149
ltoes 19.2877
102
root 1.29338 16.7667 -3.94154 -157.377 0.419704 170.701
lowerback 12.6073 -1.83918 -7.212
upperback -2.11351 -3.60623 0.33017
thorax -8.91816 -1.3679 5.14127
lowerneck -27.0447 -1.15074 -2.25977
upperneck 9.44453 -0.701995 1.26362
head 7.19813 -0.194201 0.699684
rclavicle 2.14687e-014 1.23246e-014
rhumerus -78.2519 -0.987652 -80.3369
rradius 95.1435
rwrist -10.9163
rhand -26.7384 12.8901
rfingers 7.12502
rthumb -0.167389 -17.0895
lclavicle 2.14687e-014 1.23246e-014
lhumerus -31.8794 -17.0254 92.3242
lradius 127.721
lwrist 13.4051
lhand -18.0034 -8.55142
lfingers 7.12502
lthumb 8.26709 21.2668
rfemur -66.8813 -5.41876 18.4764
rtibia 43.6412
rfoot -13.4657 -1.85909
rtoes -30.9609
lfemur 2.81066 -10.4608 -33.0443
ltibia 47.3363
lfoot 29.7699 -10.3465
ltoes 18.277
103
root 1.29099 16.7474 -4.55035 -157.811 0.451982 170.692
lowerback 12.857 -1.80009 -7.12479
upperback -1.98565 -3.55294 0.35787
thorax -8.93191 -1.34833 5.12254
lowerneck -26.9213 -1.2006 -2.38224
upperneck 9.29946 -0.701044 1.12947
head 7.13073 -0.210372 0.674122
rclavicle -9.93923e-015 -6.75868e-015
rhumerus -76.5726 -1.78129 -80.382
rradius 95.0284
rwrist -10.4119
rhand -26.3676 12.8325
rfingers 7.12502
rthumb 0.190688 -17.1471
lclavicle -9.93923e-015 -6.75868e-015
lhumerus -32.7254 -16.1449 92.688
lradius 125.116
lwrist 13.8765
lhand -17.8132 -8.2771
lfingers 7.12502
lthumb 8.45056 21.5338
rfemur -66.2527 -5.67629 19.0717
rtibia 43.9667
rfoot -13.4743 -1.3076
rtoes -30.7257
lfemur 1.70498 -9.60023 -32.7763
ltibia 51.9911
lfoot 28.9782 -9.54278
ltoes 17.5067
104
root 1.29195 16.7273 -5.15769 -158.316 0.422752 170.873
lowerback 13.1891 -1.74511 -6.89451
upperback -1.8352 -3.45473 0.435195
thorax -8.97825 -1.31145 5.07195
lowerneck -26.7818 -1.26151 -2.49559
upperneck 9.14922 -0.720711 1.00437
head 7.05969 -0.234738 0.647579
rclavicle 1.39149e-015 1.11319e-014
rhumerus -74.7239 -2.53882 -80.547
rradius 94.7843
rwrist -10.0445
rhand -25.9877 12.7456
rfingers 7.12502
rthumb 0.557656 -17.2335
lclavicle 1.39149e-015 1.11319e-014
lhumerus -33.536 -15.1972 93.0592
lradius 122.277
lwrist 14.2185
lhand -17.7437 -8.02953
lfingers 7.12502
lthumb 8.51771 21.7787
rfemur -65.506 -5.78464 19.678
rtibia 45.1226
rfoot -13.5422 -0.842339
rtoes -29.8177
lfemur 0.387454 -8.66876 -32.1907
ltibia 56.8127
lfoot 28.4132 -9.0269
ltoes 17.2093
105
root 1.29641 16.705 -5.76271 -158.894 0.354194 171.248
lowerback 13.6234 -1.6695 -6.53032
upperback -1.66436 -3.30756 0.562787
thorax -9.07038 -1.25466 4.99491
lowerneck -26.6543 -1.32848 -2.59334
upperneck 9.01623 -0.755766 0.885982
head 6.99658 -0.265048 0.618954
rclavicle -4.35338e-014 -1.66979e-014
rhumerus -72.705 -3.22523 -80.8441
rradius 94.4108
rwrist -9.89626
rhand -25.626 12.6256
rfingers 7.12502
rthumb 0.906947 -17.3523
lclavicle -4.35338e-014 -1.66979e-014
lhumerus -34.2803 -14.1845 93.3999
lradius 119.182
lwrist 14.3124
lhand -17.8109 -7.84018
lfingers 7.12502
lthumb 8.45287 21.9707
rfemur -64.5796 -5.70075 20.2753
rtibia 46.925
rfoot -13.6596 -0.512036
rtoes -27.9688
lfemur -1.11305 -7.68968 -31.3008
ltibia 61.7285
lfoot 27.9197 -8.83072
ltoes 17.6649
106
root 1.30437 16.6793 -6.36485 -159.553 0.257662 171.849
lowerback 14.1753 -1.57023 -6.00575
upperback -1.47447 -3.10162 0.747813
thorax -9.21954 -1.17471 4.8817
lowerneck -26.5241 -1.40003 -2.65789
upperneck 8.87666 -0.806337 0.754379
head 6.93102 -0.302305 0.578862
rclavicle 2.5842e-015 1.27222e-014
rhumerus -70.5211 -3.81094 -81.2765
rradius 93.9133
rwrist -9.98909
rhand -25.3129 12.4836
rfingers 7.12502
rthumb 1.20939 -17.4927
lclavicle 2.5842e-015 1.27222e-014
lhumerus -34.9383 -13.1179 93.6883
lradius 115.815
lwrist 14.1143
lhand -17.9968 -7.71884
lfingers 7.12502
lthumb 8.27338 22.0992
rfemur -63.3945 -5.38967 20.9118
rtibia 49.1344
rfoot -13.9272 -0.415556
rtoes -25.3623
lfemur -2.75744 -6.66928 -30.0847
ltibia 66.6774
lfoot 27.2616 -8.93034
ltoes 18.4647
